<svg id="Capa_1" data-name="Capa 1" xmlns="http://www.w3.org/2000/svg" viewBox="0 0 13.56 16.29"><title>casa</title><path d="M4.2,9.7a6.84,6.84,0,0,1,1.19.11V8.65H8.2v2.06a2.79,2.79,0,0,1,.79.42,1.49,1.49,0,0,1,.68,1.17,4.31,4.31,0,0,0,1.48-.65c.16-.11.35-.2.46-.28V8.17L6.78,2.77,1.87,8.2v1.94l1-.27A5.25,5.25,0,0,1,4.2,9.7Z"/><polygon points="6.8 1.46 12.26 7.55 13.5 7.55 6.79 0.06 4.02 3.12 4.02 1.89 1.98 1.89 1.98 5.37 0.02 7.55 1.28 7.55 6.8 1.46"/><path d="M12.89,11.89a2.28,2.28,0,0,0-1.23.49,5.62,5.62,0,0,1-3.16.93,4.46,4.46,0,0,1-2.21-.52c-.28-.17-.28-.22-.12-.22.33,0,1.3.22,1.95.22.33,0,.58,0,.63-.22.27-.75-.77-1-1.85-1.43a7.51,7.51,0,0,0-2.69-.56,4.14,4.14,0,0,0-1.12.14c-1.6.43-2.76.76-3.09.87V15.8a6.53,6.53,0,0,1,1.86-.48c.8,0,4,1,5.86,1a3.44,3.44,0,0,0,.68-.06c1.55-.38,4.24-2.57,5-3.32A.63.63,0,0,0,12.89,11.89Z"/></svg>