<svg id="Capa_1" data-name="Capa 1" xmlns="http://www.w3.org/2000/svg" viewBox="0 0 19.68 16.34"><title>credito</title><path d="M17.62,2.38a2,2,0,0,0-2-2H2a2,2,0,0,0-2,2V4.17H17.62V2.38Z"/><path d="M16,8.94a.13.13,0,0,0-.18,0l-2,2-.78-.78a.15.15,0,0,0-.18,0l-.71.72a.12.12,0,0,0,0,.09.11.11,0,0,0,0,.09l1.58,1.59a.18.18,0,0,0,.09,0,.13.13,0,0,0,.09,0L16.7,9.84a.16.16,0,0,0,0-.09.12.12,0,0,0,0-.09Z"/><path d="M14.44,5.65a5,5,0,0,0-2.54.69H0v6.19a2,2,0,0,0,2,2.05h9.12a5.07,5.07,0,1,0,3.28-8.93ZM7.53,11.78a.27.27,0,0,1-.26.27h-4A.26.26,0,0,1,3,11.78V11a.25.25,0,0,1,.26-.26h4a.26.26,0,0,1,.26.26v.79Zm6.91,2.15a3.21,3.21,0,1,1,3.21-3.21A3.21,3.21,0,0,1,14.44,13.93Z"/></svg>