<svg id="Capa_1" data-name="Capa 1" xmlns="http://www.w3.org/2000/svg" viewBox="0 0 18.93 16.22"><title>economia</title><g id="Layer_5" data-name="Layer 5"><path d="M13.93,4.58c-.56-.22-.72-.36-.72-.6s.15-.42.56-.42a1.74,1.74,0,0,1,.66.14l.09,0a.19.19,0,0,0,.18-.13l.1-.26a.15.15,0,0,0-.08-.2A3.83,3.83,0,0,0,14,3a0,0,0,0,1,0,0V2.55a.2.2,0,0,0-.21-.2h-.18a.2.2,0,0,0-.21.2V3a0,0,0,0,1,0,0,1.08,1.08,0,0,0-.91,1.06c0,.64.53.94,1.1,1.15s.65.37.65.64-.26.49-.65.49a2,2,0,0,1-.76-.21l-.09,0a.2.2,0,0,0-.19.13l-.09.26a.17.17,0,0,0,.08.22,3.12,3.12,0,0,0,.82.22s0,0,0,0v.4a.2.2,0,0,0,.21.2h.18a.2.2,0,0,0,.21-.2V7a0,0,0,0,1,0,0,1.14,1.14,0,0,0,1-1.12C15,5.23,14.66,4.87,13.93,4.58Z"/><path d="M13.69,0A4.92,4.92,0,1,0,18.61,5,4.92,4.92,0,0,0,13.69,0Zm0,8.7A3.78,3.78,0,1,1,17.47,5,3.78,3.78,0,0,1,13.69,8.74Z"/><path d="M17.61,12.27a12.48,12.48,0,0,1-3.92,1.33c-1.28.2-3.68-.28-3.68-.85,0-.22,2.11.53,3.38.19,1-.26.84-1.17.31-1.29a30.79,30.79,0,0,0-4.95-1.3,22.72,22.72,0,0,0-2.9.34c-.26,0-.42,0-.43.28-.08,1.14-.22,3.46-.3,4.67,0,0,0,.37.31.12a1.49,1.49,0,0,1,1.15-.46c.64.14,6.11,1.14,6.87,1a19,19,0,0,0,4.72-2.63C19.08,12.77,18.38,11.85,17.61,12.27Z"/><path d="M3.9,10.65,1,10.5a.53.53,0,0,0-.51.38L0,15.61A.32.32,0,0,0,.32,16H3.49a.43.43,0,0,0,.44-.39l.35-4.56A.4.4,0,0,0,3.9,10.65ZM2.22,15.39A.8.8,0,1,1,3,14.6.8.8,0,0,1,2.22,15.39Z"/></g></svg>