<svg id="Capa_1" data-name="Capa 1" xmlns="http://www.w3.org/2000/svg" viewBox="0 0 15.7 16.22"><title>protecao</title><g id="Layer_5" data-name="Layer 5"><path d="M8.7,12.69a3.82,3.82,0,0,1,3.83-3.83,3.33,3.33,0,0,1,1,.14.22.22,0,0,0,.31-.16,6.07,6.07,0,0,0,.21-1.58s0-4.56,0-4.61c0-.45-.25-.45-.37-.45A8.24,8.24,0,0,1,11.16,2C9.34,1.43,7.72,0,7.1,0S5.3,1.43,3.48,2a8.52,8.52,0,0,1-2.94.2c-.11,0-.28,0-.33.34,0,.1-.09,4.72-.09,4.77,0,4.51,5.59,8.75,7,8.75a4.49,4.49,0,0,0,2.14-1.08c.13-.11.06-.18,0-.25A3.75,3.75,0,0,1,8.7,12.69Z"/><path d="M12.55,14.64a.4.4,0,0,1-.51,0l-2.42-1.8a.33.33,0,0,1-.07-.48L9.86,12a.35.35,0,0,1,.48-.07l1.56,1.14a.4.4,0,0,0,.51-.05l2.2-2.3a.34.34,0,0,1,.48,0l.38.36a.35.35,0,0,1,0,.49Z"/></g></svg>