<svg id="Capa_1" data-name="Capa 1" xmlns="http://www.w3.org/2000/svg" viewBox="0 0 16.22 16.27"><defs><style>.cls-1{fill:#010002;}</style></defs><title>vistoria</title><path class="cls-1" d="M.37,13.73a1.49,1.49,0,0,0,0,2.12,1.51,1.51,0,0,0,1.06.44,1.49,1.49,0,0,0,1.06-.44l4.93-4.93L5.3,8.8Z"/><polygon class="cls-1" points="12.69 4.59 14.83 3.48 15.96 1.31 14.91 0.27 12.74 1.39 11.63 3.53 9.02 6.15 10.07 7.21 12.69 4.59"/><path class="cls-1" d="M13.16,10.29l-.21,0a3,3,0,0,0-1,.2L5.76,4.3a2.94,2.94,0,0,0,.19-1l0-.21A3,3,0,0,0,3,.26,3,3,0,0,0,1.66.57l2,2a1,1,0,0,1,.22.36A1,1,0,0,1,3,4.27,1,1,0,0,1,2.6,4.2,1,1,0,0,1,2.24,4l-2-2A2.91,2.91,0,0,0,0,3.27a3,3,0,0,0,2.8,3l.2,0a3,3,0,0,0,1-.2l6.16,6.16a3.05,3.05,0,0,0-.2,1l0,.2a3,3,0,0,0,3,2.8,2.9,2.9,0,0,0,1.28-.3l-2-2a.92.92,0,0,1-.23-.36A1,1,0,0,1,13,12.27a1.12,1.12,0,0,1,.7.29l2,2a3,3,0,0,0,.3-1.29A3,3,0,0,0,13.16,10.29Z"/></svg>